name ./resultDataOpenSim/trcMotMarkerGrf/sub09/grf-05-05.mot
datacolumns 19
datarows 20
range 1.56000000 1.63600000
endheader

                time	     ground_force_vx	     ground_force_vy	     ground_force_vz	     ground_force_px	     ground_force_py	     ground_force_pz	   l_ground_force_vx	   l_ground_force_vy	   l_ground_force_vz	   l_ground_force_px	   l_ground_force_py	   l_ground_force_pz	     ground_torque_x	     ground_torque_y	     ground_torque_z	   l_ground_torque_x	   l_ground_torque_y	   l_ground_torque_z	
          1.56000000	        -49.04765700	        476.27991055	        -23.03068040	          0.98792262	          0.00000000	          0.18856703	          0.00000000	          0.00000000	          0.00000000	          0.00000000	          0.00000000	          0.00000000	          0.00000000	          2.39914772	          0.00000000	          0.00000000	          0.00000000	          0.00000000	
          1.56400000	        -48.02562639	        472.32533012	        -21.89670402	          0.98936916	          0.00000000	          0.18857895	          0.00000000	          0.00000000	          0.00000000	          0.00000000	          0.00000000	          0.00000000	          0.00000000	          2.43467020	          0.00000000	          0.00000000	          0.00000000	          0.00000000	
          1.56800000	        -45.49877830	        468.49642768	        -21.52312556	          0.99051950	          0.00000000	          0.18858262	          0.00000000	          0.00000000	          0.00000000	          0.00000000	          0.00000000	          0.00000000	          0.00000000	          2.32424156	          0.00000000	          0.00000000	          0.00000000	          0.00000000	
          1.57200000	        -41.83593495	        464.83847973	        -21.87589383	          0.99142352	          0.00000000	          0.18857782	          0.00000000	          0.00000000	          0.00000000	          0.00000000	          0.00000000	          0.00000000	          0.00000000	          2.09793092	          0.00000000	          0.00000000	          0.00000000	          0.00000000	
          1.57600000	        -37.71578369	        461.37896019	        -22.77909192	          0.99217055	          0.00000000	          0.18856279	          0.00000000	          0.00000000	          0.00000000	          0.00000000	          0.00000000	          0.00000000	          0.00000000	          1.81668404	          0.00000000	          0.00000000	          0.00000000	          0.00000000	
          1.58000000	        -33.93628438	        458.13849038	        -23.95345465	          0.99288543	          0.00000000	          0.18852757	          0.00000000	          0.00000000	          0.00000000	          0.00000000	          0.00000000	          0.00000000	          0.00000000	          1.55539105	          0.00000000	          0.00000000	          0.00000000	          0.00000000	
          1.58400000	        -31.18485720	        455.14409196	        -25.06998434	          0.99367220	          0.00000000	          0.18844936	          0.00000000	          0.00000000	          0.00000000	          0.00000000	          0.00000000	          0.00000000	          0.00000000	          1.38343089	          0.00000000	          0.00000000	          0.00000000	          0.00000000	
          1.58800000	        -29.84411536	        452.43358007	        -25.80686062	          0.99458241	          0.00000000	          0.18830129	          0.00000000	          0.00000000	          0.00000000	          0.00000000	          0.00000000	          0.00000000	          0.00000000	          1.34778397	          0.00000000	          0.00000000	          0.00000000	          0.00000000	
          1.59200000	        -29.89884322	        450.04893974	        -25.90510861	          0.99561053	          0.00000000	          0.18806165	          0.00000000	          0.00000000	          0.00000000	          0.00000000	          0.00000000	          0.00000000	          0.00000000	          1.46268523	          0.00000000	          0.00000000	          0.00000000	          0.00000000	
          1.59600000	        -30.96067857	        448.02012660	        -25.21651602	          0.99671537	          0.00000000	          0.18773369	          0.00000000	          0.00000000	          0.00000000	          0.00000000	          0.00000000	          0.00000000	          0.00000000	          1.70783952	          0.00000000	          0.00000000	          0.00000000	          0.00000000	
          1.60000000	        -32.38439735	        446.35079573	        -23.73515390	          0.99782090	          0.00000000	          0.18733617	          0.00000000	          0.00000000	          0.00000000	          0.00000000	          0.00000000	          0.00000000	          0.00000000	          2.03504224	          0.00000000	          0.00000000	          0.00000000	          0.00000000	
          1.60400000	        -33.44704790	        445.01225074	        -21.60679633	          0.99882334	          0.00000000	          0.18688770	          0.00000000	          0.00000000	          0.00000000	          0.00000000	          0.00000000	          0.00000000	          0.00000000	          2.38117757	          0.00000000	          0.00000000	          0.00000000	          0.00000000	
          1.60800000	        -33.55174664	        443.94527095	        -19.11093221	          0.99962124	          0.00000000	          0.18642015	          0.00000000	          0.00000000	          0.00000000	          0.00000000	          0.00000000	          0.00000000	          0.00000000	          2.68418737	          0.00000000	          0.00000000	          0.00000000	          0.00000000	
          1.61200000	        -32.38941610	        443.06798910	        -16.61231223	          1.00016777	          0.00000000	          0.18596649	          0.00000000	          0.00000000	          0.00000000	          0.00000000	          0.00000000	          0.00000000	          0.00000000	          2.89784728	          0.00000000	          0.00000000	          0.00000000	          0.00000000	
          1.61600000	        -30.00751252	        442.29372647	        -14.49297929	          1.00049748	          0.00000000	          0.18556544	          0.00000000	          0.00000000	          0.00000000	          0.00000000	          0.00000000	          0.00000000	          0.00000000	          3.00145327	          0.00000000	          0.00000000	          0.00000000	          0.00000000	
          1.62000000	        -26.77799976	        441.56048804	        -13.08339142	          1.00067093	          0.00000000	          0.18524358	          0.00000000	          0.00000000	          0.00000000	          0.00000000	          0.00000000	          0.00000000	          0.00000000	          3.00203338	          0.00000000	          0.00000000	          0.00000000	          0.00000000	
          1.62400000	        -23.28392554	        440.85638127	        -12.60347038	          1.00078653	          0.00000000	          0.18501036	          0.00000000	          0.00000000	          0.00000000	          0.00000000	          0.00000000	          0.00000000	          0.00000000	          2.92903803	          0.00000000	          0.00000000	          0.00000000	          0.00000000	
          1.62800000	        -20.15438892	        440.22921674	        -13.12274513	          1.00094865	          0.00000000	          0.18485469	          0.00000000	          0.00000000	          0.00000000	          0.00000000	          0.00000000	          0.00000000	          0.00000000	          2.82376828	          0.00000000	          0.00000000	          0.00000000	          0.00000000	
          1.63200000	        -17.88771439	        439.77128141	        -14.54648362	          1.00123506	          0.00000000	          0.18474109	          0.00000000	          0.00000000	          0.00000000	          0.00000000	          0.00000000	          0.00000000	          0.00000000	          2.72723263	          0.00000000	          0.00000000	          0.00000000	          0.00000000	
          1.63600000	        -16.71979076	        439.58369973	        -16.62671608	          1.00169189	          0.00000000	          0.18463325	          0.00000000	          0.00000000	          0.00000000	          0.00000000	          0.00000000	          0.00000000	          0.00000000	          2.67015316	          0.00000000	          0.00000000	          0.00000000	          0.00000000	
